<svg width="380" height="500" viewBox="0 0 380 500" fill="none" xmlns="http://www.w3.org/2000/svg">
		<path d="M0 290.514V23.8448C44.1698 16.1152 145.635 0.527318 190.107 0.0120145C234.578 -0.503289 334.182 15.6858 379.429 23.8448C379.86 94.2696 380.463 246.198 379.429 290.514C378.136 345.909 357.452 369.098 333.535 396.796C314.402 418.954 230.288 474.664 189.781 500C156.169 480.032 78.6006 431.836 43.9543 396.796C9.30797 361.755 0.215462 311.341 0 290.514Z" fill="#1D498A"/>
		<rect x="131.85" y="68.8501" width="117.3" height="117.3" rx="21.1499" stroke="white" stroke-width="17.7001"/>
		<path d="M189.375 99.8245L189.375 155.58" stroke="white" stroke-width="17.7001" stroke-linecap="round"/>
		<path d="M161.94 128.145H217.696" stroke="white" stroke-width="17.7001" stroke-linecap="round"/>
		<rect x="131.85" y="281.85" width="117.3" height="117.3" rx="21.1499" stroke="white" stroke-width="17.7001"/>
		<path d="M190.053 312.338L190.053 368.663" stroke="white" stroke-width="17.7001" stroke-linecap="round"/>
		<path d="M162.338 340.948H218.662" stroke="white" stroke-width="17.7001" stroke-linecap="round"/>
		<path d="M183 215.5C178.858 215.5 175.5 218.858 175.5 223C175.5 227.142 178.858 230.5 183 230.5V215.5ZM217.616 239.098L224.972 237.635L217.616 239.098ZM183 230.5H193V215.5H183V230.5ZM210.5 248V273H225.5V248H210.5ZM193 230.5C198.006 230.5 199.414 230.536 200.439 230.74L203.365 216.028C200.526 215.464 197.287 215.5 193 215.5V230.5ZM225.5 248C225.5 243.713 225.536 240.474 224.972 237.635L210.26 240.561C210.464 241.586 210.5 242.994 210.5 248H225.5ZM200.439 230.74C205.397 231.727 209.273 235.603 210.26 240.561L224.972 237.635C222.802 226.726 214.274 218.198 203.365 216.028L200.439 230.74Z" fill="white"/>
		<path d="M173 258C173 253.858 169.642 250.5 165.5 250.5C161.358 250.5 158 253.858 158 258L173 258ZM158 258L158 273L173 273L173 258L158 258Z" fill="white"/>
		<path d="M198 250.5C202.142 250.5 205.5 247.142 205.5 243C205.5 238.858 202.142 235.5 198 235.5V250.5ZM155.5 193V223H170.5V193H155.5ZM183 250.5H198V235.5H183V250.5ZM155.5 223C155.5 238.188 167.812 250.5 183 250.5V235.5C176.096 235.5 170.5 229.904 170.5 223H155.5Z" fill="white"/>
		<path d="M206.5 208C206.5 212.142 209.858 215.5 214 215.5C218.142 215.5 221.5 212.142 221.5 208H206.5ZM206.5 193V208H221.5V193H206.5Z" fill="white"/>
</svg>
