<svg width="24.000000000000004" height="24.000000000000004" xmlns="http://www.w3.org/2000/svg">

 <g>
  <title>background</title>
  <rect fill="none" id="canvas_background" height="602" width="802" y="-1" x="-1"/>
 </g>
 <g>
  <title>Layer 1</title>
  <path id="svg_1" d="m23.994,24l0,-0.001l0.006,0l0,-8.802c0,-4.306 -0.927,-7.623 -5.961,-7.623c-2.42,0 -4.33442,0.84397 -4.99742,2.10297l0.22042,0.48403l0,-2.185l-4.773,0l0,16.023l4.97,0l0,-7.934c0,-2.089 0.396,-4.109 2.983,-4.109c2.549,0 2.587,2.384 2.587,4.243l0,7.801l4.965,0z"/>
  <path id="svg_2" d="m0.396,7.977l4.976,0l0,16.023l-4.976,0l0,-16.023z"/>
  <path id="svg_3" d="m2.882,0c-1.591,0 -2.882,1.291 -2.882,2.882s1.291,2.909 2.882,2.909s2.882,-1.318 2.882,-2.909c-0.001,-1.591 -1.292,-2.882 -2.882,-2.882z"/>
 </g>
</svg>